<svg aria-hidden="true" style="position: absolute; width: 0; height: 0; overflow: hidden;" version="1.1" xmlns="http://www.w3.org/2000/svg" xmlns:xlink="http://www.w3.org/1999/xlink">
<defs>
<symbol id="icon-logo" viewBox="0 0 32 32">
<path d="M0 10.969c0 0 5.931-6.272 14.938-2.781 10.818 4.197 13.573 2.477 17.062-0.708 0 0-3.969 8.291-15.545 4.045-12.354-4.531-16.455-0.556-16.455-0.556z"></path>
<path d="M0 17.036c0 0 5.931-6.273 14.938-2.781 10.818 4.195 13.573 2.477 17.062-0.708 0 0-3.969 8.291-15.545 4.045-12.354-4.531-16.455-0.556-16.455-0.556z"></path>
<path d="M0 23.102c0 0 5.931-6.273 14.938-2.781 10.818 4.195 13.573 2.477 17.062-0.708 0 0-3.969 8.291-15.545 4.045-12.354-4.531-16.455-0.556-16.455-0.556z"></path>
</symbol>
<symbol id="icon-logout" viewBox="0 0 32 32">
<path d="M0 7.9v16.199c0 2.232 1.821 4.053 4.053 4.053h13.092c2.232 0 4.053-1.821 4.053-4.053v-2.624c0-0.444-0.359-0.803-0.803-0.803s-0.803 0.359-0.803 0.803v2.624c0 1.351-1.103 2.454-2.454 2.454h-13.086c-1.351 0-2.454-1.103-2.454-2.454v-16.199c0-1.351 1.103-2.454 2.454-2.454h13.092c1.351 0 2.454 1.103 2.454 2.454v2.624c0 0.444 0.359 0.803 0.803 0.803s0.803-0.359 0.803-0.803v-2.624c0-2.232-1.821-4.053-4.053-4.053h-13.099c-2.232 0-4.053 1.814-4.053 4.053z"></path>
<path d="M25.154 22.037c0.157 0.157 0.359 0.235 0.568 0.235s0.411-0.078 0.568-0.235l5.476-5.476c0.313-0.313 0.313-0.816 0-1.129l-5.476-5.476c-0.313-0.313-0.816-0.313-1.129 0s-0.313 0.816 0 1.129l4.112 4.112h-15.005c-0.444 0-0.803 0.359-0.803 0.803s0.359 0.803 0.803 0.803h14.998l-4.112 4.112c-0.313 0.307-0.313 0.816 0 1.123z"></path>
</symbol>
<symbol id="icon-del" viewBox="0 0 32 32">
<path d="M23.244 2.745h-6.023v-2.745h-8.179v2.745h-6.023v4.334h20.226v-4.334zM11.209 2.167h3.845v0.578h-3.845v-0.578z"></path>
<path d="M21.32 15.481l0.409-6.235h-17.194l1.374 20.948h8.247c-1.073-1.522-1.705-3.377-1.705-5.376 0-4.994 3.936-9.086 8.87-9.337z"></path>
<path d="M21.799 17.635c-3.96 0-7.182 3.222-7.182 7.182s3.222 7.182 7.182 7.182 7.182-3.222 7.182-7.182-3.222-7.182-7.182-7.182zM25.713 27.199l-1.532 1.532-2.381-2.381-2.381 2.381-1.532-1.532 2.381-2.381-2.381-2.381 1.532-1.532 2.381 2.381 2.381-2.381 1.532 1.532-2.381 2.381 2.381 2.381z"></path>
</symbol>
<symbol id="icon-up2" viewBox="0 0 32 32">
<path fill="#fff" style="fill: var(--color1, #fff)" opacity="0.01" d="M0 0h32v32h-32v-32z"></path>
<path fill="none" stroke="#000" style="stroke: var(--color2, #000)" stroke-linejoin="round" stroke-linecap="round" stroke-miterlimit="4" stroke-width="2.6667" d="M8.667 20l8-8 8 8"></path>
</symbol>
<symbol id="icon-loader" viewBox="0 0 32 32">
<path d="M22.986 8.918c0.459 0.385 1.041 0.597 1.639 0.597 0.759 0 1.472-0.333 1.96-0.913 0.905-1.079 0.764-2.694-0.315-3.6-0.459-0.385-1.042-0.598-1.64-0.598-0.758 0-1.472 0.333-1.959 0.913-0.906 1.079-0.764 2.694 0.315 3.6z"></path>
<path d="M29.016 11.842c-0.158 0-0.319 0.014-0.475 0.042-1.471 0.259-2.458 1.669-2.199 3.141 0.228 1.298 1.349 2.239 2.664 2.239 0.158 0 0.319-0.014 0.476-0.041 1.471-0.26 2.458-1.669 2.198-3.14-0.229-1.298-1.35-2.24-2.664-2.24z"></path>
<path d="M28.922 20.706c-0.436-0.252-0.93-0.384-1.428-0.384-1.023 0-1.976 0.55-2.486 1.434-0.382 0.662-0.485 1.434-0.286 2.173s0.673 1.358 1.335 1.74c0.436 0.252 0.93 0.385 1.429 0.385 1.022 0 1.975-0.549 2.485-1.433 0.789-1.369 0.319-3.125-1.049-3.915z"></path>
<path d="M20.772 25.801c-0.351 0-0.699 0.062-1.033 0.183-0.758 0.276-1.362 0.831-1.704 1.562s-0.377 1.551-0.101 2.31c0.433 1.19 1.574 1.989 2.839 1.989 0.351 0 0.699-0.062 1.032-0.183 0.757-0.276 1.361-0.83 1.703-1.563s0.377-1.552 0.102-2.309c-0.432-1.189-1.574-1.989-2.839-1.989z"></path>
<path d="M13.091 25.838c-0.352-0.128-0.718-0.193-1.086-0.193-1.33 0-2.529 0.841-2.984 2.091-0.291 0.798-0.253 1.66 0.106 2.429s0.994 1.352 1.792 1.642c0.352 0.128 0.717 0.193 1.087 0.193 1.331 0 2.53-0.841 2.984-2.090 0.29-0.796 0.252-1.658-0.107-2.428s-0.995-1.354-1.791-1.644z"></path>
<path d="M8.174 21.521c-0.594-1.028-1.7-1.666-2.889-1.666-0.581 0-1.155 0.155-1.662 0.447-0.771 0.445-1.322 1.164-1.552 2.023s-0.113 1.757 0.333 2.528c0.594 1.028 1.701 1.667 2.889 1.667 0.581 0 1.155-0.155 1.662-0.447 1.59-0.918 2.138-2.96 1.22-4.551z"></path>
<path d="M3.771 18.041c1.692 0 3.135-1.212 3.429-2.882 0.161-0.918-0.044-1.843-0.578-2.605s-1.333-1.272-2.251-1.434c-0.203-0.035-0.409-0.053-0.61-0.053-1.692 0-3.135 1.212-3.429 2.882-0.161 0.917 0.044 1.842 0.578 2.605s1.334 1.272 2.251 1.434c0.202 0.036 0.408 0.054 0.61 0.054z"></path>
<path d="M8.152 10.603c0.853 0 1.683-0.303 2.339-0.852 0.744-0.624 1.2-1.503 1.285-2.473s-0.212-1.915-0.837-2.659c-0.694-0.827-1.712-1.301-2.792-1.301-0.854 0-1.685 0.302-2.339 0.852-0.745 0.625-1.202 1.504-1.287 2.473s0.213 1.913 0.838 2.659c0.695 0.827 1.712 1.301 2.793 1.301z"></path>
<path d="M20.351 3.962c0 2.188-1.774 3.962-3.962 3.962s-3.962-1.774-3.962-3.962c0-2.188 1.774-3.962 3.962-3.962s3.962 1.774 3.962 3.962z"></path>
</symbol>
<symbol id="icon-avatar2" viewBox="0 0 32 32">
<path d="M1.871 16c0-7.803 6.326-14.129 14.129-14.129s14.129 6.326 14.129 14.129c0 7.803-6.326 14.129-14.129 14.129s-14.129-6.326-14.129-14.129zM16 3.898c-6.684 0-12.102 5.418-12.102 12.102 0 3.14 1.196 6.002 3.158 8.152 1.885-2.944 5.186-4.899 8.945-4.899s7.059 1.954 8.944 4.898c1.961-2.151 3.157-5.011 3.157-8.151 0-6.684-5.418-12.102-12.102-12.102zM23.428 25.555c-1.489-2.558-4.258-4.275-7.427-4.275s-5.939 1.717-7.428 4.275c2.050 1.596 4.628 2.546 7.427 2.546s5.378-0.951 7.428-2.547zM10.987 13.877c0-2.769 2.245-5.013 5.013-5.013s5.013 2.245 5.013 5.013c0 2.769-2.245 5.013-5.013 5.013s-5.013-2.245-5.013-5.013zM16 10.89c-1.649 0-2.987 1.337-2.987 2.987s1.337 2.987 2.987 2.987c1.649 0 2.987-1.337 2.987-2.987s-1.337-2.987-2.987-2.987z"></path>
</symbol>
<symbol id="icon-guarantee" viewBox="0 0 32 32">
<path d="M29.897 4.479c-0.057-0.413-0.354-0.752-0.756-0.864l-12.861-3.577c-0.183-0.051-0.377-0.051-0.561 0l-12.861 3.577c-0.401 0.112-0.698 0.451-0.756 0.864-0.075 0.536-1.776 13.21 2.589 19.515 4.36 6.297 10.791 7.911 11.063 7.977 0.081 0.020 0.163 0.029 0.246 0.029s0.165-0.010 0.246-0.029c0.272-0.066 6.703-1.679 11.063-7.977 4.365-6.305 2.663-18.979 2.589-19.515zM24.294 11.878l-8.773 8.773c-0.204 0.204-0.472 0.306-0.739 0.306s-0.535-0.102-0.739-0.306l-5.424-5.424c-0.196-0.196-0.306-0.462-0.306-0.739s0.11-0.543 0.306-0.739l1.077-1.077c0.408-0.408 1.071-0.408 1.479 0l3.608 3.608 6.956-6.956c0.196-0.196 0.462-0.306 0.739-0.306s0.543 0.11 0.739 0.306l1.077 1.077c0.408 0.408 0.408 1.071 0 1.479z"></path>
</symbol>
<symbol id="icon-calendar" viewBox="0 0 32 32">
<path d="M11.63 15.575c0 0.294-0.236 0.53-0.53 0.53h-1.989c-0.294 0-0.53-0.236-0.53-0.53v-1.989c0-0.294 0.236-0.53 0.53-0.53h1.989c0.294 0 0.53 0.236 0.53 0.53v1.989zM15.784 13.593c0-0.294-0.236-0.53-0.53-0.53h-1.989c-0.294 0-0.53 0.236-0.53 0.53v1.989c0 0.294 0.236 0.53 0.53 0.53h1.989c0.294 0 0.53-0.236 0.53-0.53v-1.989zM19.938 13.593c0-0.294-0.235-0.53-0.53-0.53h-1.989c-0.294 0-0.53 0.236-0.53 0.53v1.989c0 0.294 0.235 0.53 0.53 0.53h1.989c0.294 0 0.53-0.236 0.53-0.53v-1.989zM11.63 17.635c0-0.294-0.236-0.53-0.53-0.53h-1.989c-0.294 0-0.53 0.235-0.53 0.53v1.989c0 0.294 0.236 0.53 0.53 0.53h1.989c0.294 0 0.53-0.235 0.53-0.53v-1.989zM15.784 17.635c0-0.294-0.236-0.53-0.53-0.53h-1.989c-0.294 0-0.53 0.235-0.53 0.53v1.989c0 0.294 0.236 0.53 0.53 0.53h1.989c0.294 0 0.53-0.235 0.53-0.53v-1.989zM19.408 17.105h-1.989c-0.294 0-0.53 0.235-0.53 0.53v1.989c0 0.294 0.235 0.53 0.53 0.53h1.989c0.294 0 0.53-0.235 0.53-0.53v-1.989c0-0.294-0.235-0.53-0.53-0.53zM6.94 21.148h-1.982c-0.294 0-0.53 0.235-0.53 0.53v1.989c0 0.294 0.236 0.53 0.53 0.53h1.989c0.294 0 0.53-0.235 0.53-0.53v-1.989c0-0.294-0.242-0.53-0.536-0.53zM7.477 17.635c0-0.294-0.236-0.53-0.53-0.53h-1.989c-0.294 0-0.53 0.235-0.53 0.53v1.989c0 0.294 0.236 0.53 0.53 0.53h1.989c0.294 0 0.53-0.235 0.53-0.53v-1.989zM15.254 21.148h-1.989c-0.294 0-0.53 0.235-0.53 0.53v1.989c0 0.294 0.236 0.53 0.53 0.53h1.989c0.294 0 0.53-0.235 0.53-0.53v-1.989c0-0.294-0.236-0.53-0.53-0.53zM11.101 21.148h-1.989c-0.294 0-0.53 0.235-0.53 0.53v1.989c0 0.294 0.236 0.53 0.53 0.53h1.989c0.294 0 0.53-0.235 0.53-0.53v-1.989c0-0.294-0.236-0.53-0.53-0.53zM23.562 16.111c0.294 0 0.53-0.236 0.53-0.53v-1.989c0-0.294-0.235-0.53-0.53-0.53h-1.989c-0.294 0-0.53 0.236-0.53 0.53v1.989c0 0.294 0.235 0.53 0.53 0.53h1.989zM3.12 28.514h15.091c-0.242-0.759-0.379-1.57-0.386-2.407h-14.705c-0.392 0-0.706-0.321-0.706-0.706v-14.214h23.66v6.613c0.837 0.007 1.648 0.131 2.407 0.373v-11.964c0-1.72-1.4-3.12-3.12-3.12h-3.493v-1.923c0-0.628-0.51-1.138-1.138-1.138h-1.773c-0.628 0-1.138 0.51-1.138 1.138v1.93h-7.156v-1.93c0-0.628-0.51-1.138-1.138-1.138h-1.773c-0.628 0-1.138 0.51-1.138 1.138v1.93h-3.493c-1.72 0-3.12 1.4-3.12 3.12v19.186c0 1.714 1.4 3.114 3.12 3.114zM32 26.015c0 3.29-2.669 5.959-5.959 5.959s-5.959-2.669-5.959-5.959 2.669-5.959 5.959-5.959 5.959 2.669 5.959 5.959zM29.050 24.471c0-0.19-0.072-0.373-0.209-0.504-0.281-0.281-0.733-0.281-1.014 0l-2.59 2.59-0.994-0.994c-0.281-0.281-0.733-0.281-1.014 0-0.137 0.137-0.209 0.314-0.209 0.504s0.072 0.373 0.209 0.504l1.498 1.498c0.281 0.281 0.733 0.281 1.014 0l3.094-3.094c0.144-0.131 0.216-0.314 0.216-0.504z"></path>
</symbol>
<symbol id="icon-price" viewBox="0 0 32 32">
<path d="M31.577 0.156c-0.209-0.209-0.546-0.209-0.754 0l-1.977 1.977h-12.418l-15.61 15.739c-0.356 0.355-0.551 0.828-0.551 1.331s0.196 0.975 0.551 1.331l10.915 10.915c0.355 0.355 0.828 0.551 1.331 0.551s0.975-0.196 1.335-0.556l15.201-15.611v-12.946l1.977-1.977c0.209-0.209 0.209-0.546 0-0.754zM20.799 18.058c-0.209 0.209-0.546 0.209-0.754 0s-0.209-0.546 0-0.754c1.327-1.327 1.44-3.412 0.347-4.873l-4.772 4.772 0.406 3.248c0.113 0.899-0.15 1.817-0.721 2.52-0.554 0.683-1.332 1.098-2.193 1.169-0.134 0.011-0.269 0.017-0.403 0.017-1.091 0-2.143-0.372-2.993-1.052l-0.61 0.61c-0.104 0.104-0.241 0.156-0.377 0.156s-0.273-0.052-0.377-0.156c-0.209-0.209-0.209-0.546 0-0.754l0.609-0.609c-1.506-1.883-1.389-4.645 0.355-6.389 0.209-0.209 0.546-0.209 0.754 0s0.209 0.546 0 0.754c-1.327 1.327-1.44 3.411-0.347 4.873l4.772-4.772-0.406-3.248c-0.113-0.899 0.15-1.817 0.72-2.519 0.554-0.682 1.333-1.098 2.193-1.17 1.235-0.105 2.444 0.27 3.397 1.033l0.398-0.398c0.209-0.209 0.546-0.209 0.754 0s0.209 0.546 0 0.754l-0.399 0.399c1.507 1.883 1.39 4.645-0.354 6.389zM23.733 10.667c-1.47 0-2.667-1.196-2.667-2.667s1.196-2.667 2.667-2.667 2.667 1.196 2.667 2.667-1.196 2.667-2.667 2.667z"></path>
<path d="M17.093 10.943c-0.568 0.048-1.084 0.324-1.453 0.779-0.388 0.478-0.566 1.103-0.49 1.715l0.303 2.425 4.185-4.185c-0.727-0.544-1.629-0.81-2.545-0.734z"></path>
<path d="M14.665 18.158l-4.185 4.185c0.727 0.542 1.628 0.806 2.545 0.734 0.568-0.047 1.084-0.324 1.453-0.779 0.388-0.478 0.567-1.103 0.49-1.716l-0.303-2.425z"></path>
</symbol>
<symbol id="icon-time2" viewBox="0 0 32 32">
<path d="M29.021 16.001c0-0.591 0.479-1.070 1.070-1.070l1.909-0.001c-0.142-2.145-0.703-4.172-1.605-6.004l-1.656 0.956c-0.168 0.098-0.353 0.144-0.534 0.144-0.37 0-0.729-0.192-0.928-0.535-0.296-0.512-0.121-1.166 0.391-1.462l1.669-0.964c-1.166-1.738-2.663-3.234-4.4-4.401l-0.963 1.669c-0.198 0.343-0.558 0.535-0.928 0.535-0.181 0-0.365-0.046-0.534-0.143-0.512-0.296-0.687-0.95-0.392-1.462l0.956-1.657c-1.833-0.903-3.859-1.464-6.005-1.606v1.908c0 0.591-0.479 1.070-1.070 1.070s-1.070-0.479-1.070-1.070v-1.908c-2.146 0.142-4.171 0.703-6.004 1.606l0.955 1.655c0.295 0.512 0.12 1.166-0.392 1.462-0.169 0.097-0.353 0.143-0.534 0.143-0.37 0-0.73-0.192-0.928-0.535l-0.962-1.668c-1.738 1.166-3.234 2.664-4.401 4.401l1.668 0.963c0.512 0.296 0.687 0.951 0.392 1.462-0.199 0.343-0.558 0.535-0.928 0.535-0.181 0-0.366-0.046-0.534-0.143l-1.655-0.956c-0.903 1.833-1.463 3.859-1.606 6.004l1.907 0.001c0.591 0 1.070 0.479 1.070 1.070s-0.479 1.070-1.070 1.070l-1.906-0.001c0.142 2.145 0.702 4.171 1.605 6.004l1.653-0.954c0.512-0.296 1.166-0.12 1.462 0.392 0.295 0.512 0.12 1.166-0.392 1.462l-1.666 0.962c1.167 1.738 2.664 3.234 4.401 4.4l0.962-1.665c0.296-0.512 0.95-0.689 1.462-0.392 0.512 0.296 0.687 0.951 0.392 1.462l-0.955 1.653c1.833 0.903 3.859 1.463 6.004 1.605v-1.908c0-0.591 0.479-1.070 1.070-1.070s1.070 0.479 1.070 1.070v1.908c2.146-0.142 4.171-0.703 6.004-1.606l-0.956-1.654c-0.296-0.512-0.121-1.166 0.392-1.462 0.512-0.297 1.166-0.12 1.462 0.391l0.963 1.668c1.738-1.166 3.234-2.663 4.401-4.401l-1.668-0.963c-0.512-0.296-0.687-0.95-0.392-1.462s0.949-0.688 1.462-0.392l1.656 0.956c0.903-1.833 1.464-3.859 1.605-6.005l-1.909 0.001c-0.591 0-1.070-0.479-1.070-1.070zM25.454 17.070h-8.030c-0.325 0.432-0.842 0.711-1.423 0.711-0.984 0-1.781-0.797-1.781-1.781 0-0.722 0.43-1.343 1.048-1.623l2.844-12.703c0.13-0.577 0.707-0.936 1.278-0.811 0.577 0.13 0.94 0.702 0.811 1.279l-2.845 12.703c0.024 0.028 0.047 0.056 0.068 0.085h8.030c0.591 0 1.070 0.479 1.070 1.070s-0.479 1.070-1.070 1.070z"></path>
</symbol>
<symbol id="icon-menu" viewBox="0 0 32 32">
<path d="M26 16c0 1.104-0.896 2-2 2h-16c-1.104 0-2-0.896-2-2s0.896-2 2-2h16c1.104 0 2 0.896 2 2z"></path>
<path d="M26 8c0 1.104-0.896 2-2 2h-16c-1.104 0-2-0.896-2-2s0.896-2 2-2h16c1.104 0 2 0.896 2 2z"></path>
<path d="M26 24c0 1.104-0.896 2-2 2h-16c-1.104 0-2-0.896-2-2s0.896-2 2-2h16c1.104 0 2 0.896 2 2z"></path>
</symbol>
<symbol id="icon-hands" viewBox="0 0 32 32">
<path d="M11.747 8.148c-1.596-0.006-2.894-1.306-2.894-2.904 0-0.818 0.341-1.558 0.887-2.087l-0.672-0.632c-0.122-0.105-0.272-0.156-0.421-0.156-0.166 0-0.332 0.064-0.458 0.19l-8.001 8.014c-0.229 0.229-0.252 0.593-0.055 0.85l2.943 3.361c0.059 0.077 0.099 0.166 0.12 0.261 0.12 0.55 0.325 1.135 0.598 1.742l0.276-0.276c0.483-0.483 1.125-0.749 1.807-0.749s1.324 0.266 1.807 0.749c0.003 0.003 0.006 0.006 0.009 0.009l0.008 0.008c0.333 0.334 0.558 0.745 0.668 1.192 0.382-0.218 0.814-0.337 1.265-0.337 0.681 0 1.322 0.265 1.805 0.746l0.011 0.011c0.001 0.001 0.003 0.003 0.004 0.004 0.483 0.483 0.748 1.124 0.748 1.807 0 0.317-0.060 0.624-0.169 0.911 0.551 0.074 1.062 0.322 1.462 0.723l0.013 0.013c0.355 0.355 0.581 0.79 0.683 1.247l5.802 5.802c0.311 0.311 0.726 0.475 1.141 0.475 0.33 0 0.658-0.104 0.932-0.321 0.732-0.579 0.777-1.657 0.136-2.298l-5.614-5.614c-0.29-0.289-0.29-0.759 0-1.048 0.147-0.147 0.339-0.22 0.532-0.22s0.385 0.073 0.532 0.22l7.14 7.14c0.311 0.311 0.727 0.475 1.141 0.475 0.33 0 0.658-0.104 0.932-0.321 0.732-0.579 0.777-1.657 0.136-2.298l-7.174-7.174c-0.293-0.293-0.293-0.769 0-1.062v0c0.145-0.145 0.335-0.217 0.525-0.217s0.38 0.072 0.525 0.217l5.581 5.581c0.311 0.311 0.727 0.475 1.141 0.475 0.33 0 0.658-0.104 0.932-0.321 0.732-0.579 0.777-1.657 0.136-2.298l-11.825-11.825-5.097-0.065z"></path>
<path d="M15.728 30.205c0.45 0 0.901-0.195 1.209-0.585 0.49-0.618 0.404-1.516-0.154-2.074l-0.492-0.492c-0.043 0.591-0.287 1.17-0.738 1.621l-0.64 0.64c-0.121 0.121-0.252 0.229-0.392 0.322l0.119 0.119c0.299 0.299 0.694 0.449 1.088 0.449z"></path>
<path d="M23.811 1.985c-0.126-0.126-0.291-0.19-0.458-0.19-0.15 0-0.3 0.052-0.421 0.156l-0.534 0.305c-0.001 0.001-0.002 0.001-0.003 0.002l-10.637 1.463c-0.838 0-1.524 0.686-1.524 1.524s0.686 1.524 1.524 1.524l5.673 0.072c0 0 8.792 8.796 10.746 10.75 1.536-1.957 2.906-4.004 3.295-5.788 0.021-0.095 0.061-0.184 0.12-0.261l0.275-0.693c0.197-0.257 0.174-0.62-0.055-0.85l-8.001-8.013z"></path>
<path d="M4.14 20.080c0.23 0.229 0.53 0.344 0.831 0.344s0.602-0.115 0.831-0.344l0.919-0.919c0.459-0.459 0.459-1.203 0-1.662l-0.012-0.012c-0.23-0.23-0.53-0.344-0.831-0.344s-0.602 0.115-0.831 0.344l-0.919 0.919c-0.459 0.459-0.459 1.203 0 1.662l0.012 0.012z"></path>
<path d="M7.473 23.301c0.301 0 0.602-0.115 0.831-0.344l2.175-2.175c0.459-0.459 0.459-1.203 0-1.662l-0.012-0.012c-0.229-0.23-0.53-0.344-0.831-0.344s-0.602 0.115-0.831 0.344l-2.175 2.175c-0.459 0.459-0.459 1.203 0 1.662l0.012 0.012c0.23 0.23 0.53 0.344 0.831 0.344z"></path>
<path d="M9.463 25.643c0.229 0.229 0.53 0.344 0.831 0.344s0.602-0.115 0.831-0.344l1.408-1.408c0.459-0.459 0.459-1.203 0-1.662l-0.012-0.012c-0.23-0.229-0.53-0.344-0.831-0.344s-0.601 0.115-0.831 0.344l-1.408 1.408c-0.459 0.459-0.459 1.203 0 1.662l0.012 0.012z"></path>
<path d="M13.937 28.34l0.64-0.64c0.459-0.459 0.459-1.203 0-1.662l-0.012-0.012c-0.229-0.229-0.53-0.344-0.831-0.344s-0.602 0.115-0.831 0.344l-0.64 0.64c-0.459 0.459-0.459 1.203 0 1.662l0.012 0.012c0.229 0.229 0.53 0.344 0.831 0.344s0.602-0.115 0.831-0.344z"></path>
</symbol>
<symbol id="icon-location" viewBox="0 0 32 32">
<path d="M16 0c-6.674 0-12.104 5.43-12.104 12.104 0 2.753 1.898 6.779 5.64 11.966 2.706 3.75 5.368 6.713 5.48 6.837l0.985 1.093 0.985-1.093c0.112-0.124 2.774-3.087 5.48-6.837 3.742-5.187 5.64-9.213 5.64-11.966-0-6.674-5.43-12.104-12.105-12.104zM16 28.008c-3.334-3.898-9.454-11.883-9.454-15.904 0-5.213 4.241-9.454 9.454-9.454s9.453 4.241 9.453 9.454c0 4.021-6.119 12.006-9.454 15.904z"></path>
<path d="M20.391 12.105c0 2.425-1.966 4.391-4.391 4.391s-4.391-1.966-4.391-4.391c0-2.425 1.966-4.391 4.391-4.391s4.391 1.966 4.391 4.391z"></path>
</symbol>
<symbol id="icon-time" viewBox="0 0 32 32">
<path d="M16 32c-8.837 0-16-7.163-16-16s7.163-16 16-16v0c8.837 0 16 7.163 16 16s-7.163 16-16 16v0zM16 28.8c7.069 0 12.8-5.731 12.8-12.8s-5.731-12.8-12.8-12.8v0c-7.069 0-12.8 5.731-12.8 12.8s5.731 12.8 12.8 12.8v0zM14.4 16.656v-10.256h3.2v8.944l6.32 6.32-2.256 2.256-7.264-7.264z"></path>
</symbol>
<symbol id="icon-up" viewBox="0 0 32 32">
<path d="M16 0c-8.836 0-16 7.164-16 16s7.163 16 16 16 16-7.164 16-16c0-8.836-7.164-16-16-16zM23.22 20.244c-0.583 0.583-1.529 0.583-2.113 0l-5.148-5.149-5.176 5.175c-0.583 0.583-1.529 0.583-2.113 0-0.291-0.292-0.437-0.674-0.437-1.057s0.146-0.764 0.438-1.056l6.004-6.005c0.057-0.089 0.123-0.175 0.201-0.253 0.298-0.298 0.691-0.442 1.082-0.435 0.391-0.007 0.784 0.137 1.082 0.435 0.078 0.078 0.144 0.163 0.201 0.252l5.978 5.978c0.583 0.583 0.584 1.529 0 2.113z"></path>
</symbol>
<symbol id="icon-cross" viewBox="0 0 32 32">
<path d="M31.708 25.708c-0-0-0-0-0-0l-9.708-9.708 9.708-9.708c0-0 0-0 0-0 0.105-0.105 0.18-0.227 0.229-0.357 0.133-0.356 0.057-0.771-0.229-1.057l-4.586-4.586c-0.286-0.286-0.702-0.361-1.057-0.229-0.13 0.048-0.252 0.124-0.357 0.228 0 0-0 0-0 0l-9.708 9.708-9.708-9.708c-0-0-0-0-0-0-0.105-0.104-0.227-0.18-0.357-0.228-0.356-0.133-0.771-0.057-1.057 0.229l-4.586 4.586c-0.286 0.286-0.361 0.702-0.229 1.057 0.049 0.13 0.124 0.252 0.229 0.357 0 0 0 0 0 0l9.708 9.708-9.708 9.708c-0 0-0 0-0 0-0.104 0.105-0.18 0.227-0.229 0.357-0.133 0.355-0.057 0.771 0.229 1.057l4.586 4.586c0.286 0.286 0.702 0.361 1.057 0.229 0.13-0.049 0.252-0.124 0.357-0.229 0-0 0-0 0-0l9.708-9.708 9.708 9.708c0 0 0 0 0 0 0.105 0.105 0.227 0.18 0.357 0.229 0.356 0.133 0.771 0.057 1.057-0.229l4.586-4.586c0.286-0.286 0.362-0.702 0.229-1.057-0.049-0.13-0.124-0.252-0.229-0.357z"></path>
</symbol>
<symbol id="icon-github" viewBox="0 0 32 32">
<path d="M16 0.396c-8.839 0-16 7.167-16 16 0 7.073 4.584 13.068 10.937 15.183 0.803 0.151 1.093-0.344 1.093-0.772 0-0.38-0.009-1.385-0.015-2.719-4.453 0.964-5.391-2.151-5.391-2.151-0.729-1.844-1.781-2.339-1.781-2.339-1.448-0.989 0.115-0.968 0.115-0.968 1.604 0.109 2.448 1.645 2.448 1.645 1.427 2.448 3.744 1.74 4.661 1.328 0.14-1.031 0.557-1.74 1.011-2.135-3.552-0.401-7.287-1.776-7.287-7.907 0-1.751 0.62-3.177 1.645-4.297-0.177-0.401-0.719-2.031 0.141-4.235 0 0 1.339-0.427 4.4 1.641 1.281-0.355 2.641-0.532 4-0.541 1.36 0.009 2.719 0.187 4 0.541 3.043-2.068 4.381-1.641 4.381-1.641 0.859 2.204 0.317 3.833 0.161 4.235 1.015 1.12 1.635 2.547 1.635 4.297 0 6.145-3.74 7.5-7.296 7.891 0.556 0.479 1.077 1.464 1.077 2.959 0 2.14-0.020 3.864-0.020 4.385 0 0.416 0.28 0.916 1.104 0.755 6.4-2.093 10.979-8.093 10.979-15.156 0-8.833-7.161-16-16-16z"></path>
</symbol>
<symbol id="icon-mark" viewBox="0 0 42 32">
<path fill="#fff" style="fill: var(--color1, #fff); stroke: var(--color1, #fff)" stroke="#fff" stroke-linejoin="miter" stroke-linecap="butt" stroke-miterlimit="4" stroke-width="0.64" d="M6.263 15.205l-0.22-0.21-3.307 3.132 11.651 11.114 24.477-23.351-3.285-3.134-21.192 20.197-8.124-7.75z"></path>
</symbol>
<symbol id="icon-tel" viewBox="0 0 32 32">
<path d="M27.419 20.853l-4.201-0.48c-0.116-0.014-0.25-0.023-0.385-0.023-0.909 0-1.732 0.369-2.328 0.964l-3.045 3.045c-4.718-2.435-8.467-6.185-10.835-10.764l-0.065-0.139 3.063-3.056c0.596-0.596 0.964-1.419 0.964-2.328 0-0.136-0.008-0.27-0.024-0.401l0.002 0.016-0.48-4.169c-0.199-1.655-1.595-2.926-3.287-2.926-0.001 0-0.003 0-0.004 0h-2.861c-1.87-0.005-3.424 1.55-3.31 3.417 0.878 14.126 12.176 25.408 26.286 26.286 1.867 0.114 3.424-1.44 3.424-3.31v-2.862c0-0.005 0-0.010 0-0.016 0-1.681-1.266-3.067-2.897-3.256l-0.015-0.001z"></path>
</symbol>
<symbol id="icon-avatar" viewBox="0 0 32 32">
<path d="M16 16c4.418 0 8-3.582 8-8s-3.582-8-8-8v0c-4.418 0-8 3.582-8 8s3.582 8 8 8v0zM16 20c-5.339 0-16 2.68-16 8v2c0 1.099 0.901 2 2 2h28c1.099 0 2-0.901 2-2v-2c0-5.32-10.661-8-16-8z"></path>
</symbol>
<symbol id="icon-mail" viewBox="0 0 43 32">
<path d="M37.333 0h-32c-2.2 0-3.981 1.8-3.981 4l-0.019 24c0 2.2 1.8 4 4 4h32c2.2 0 4-1.8 4-4v-24c0-2.2-1.8-4-4-4zM36.533 8.501l-14.139 8.837c-0.302 0.188-0.668 0.3-1.060 0.3s-0.758-0.112-1.069-0.305l0.009 0.005-14.141-8.84c-0.503-0.301-0.835-0.843-0.835-1.463 0-0.938 0.761-1.699 1.699-1.699 0.349 0 0.673 0.105 0.943 0.285l-0.006-0.004 13.4 8.381 13.4-8.381c0.264-0.176 0.588-0.282 0.937-0.282 0.938 0 1.699 0.761 1.699 1.699 0 0.62-0.332 1.162-0.828 1.459l-0.008 0.004z"></path>
</symbol>
<symbol id="icon-x" viewBox="0 0 32 32">
<path d="M32 3.223l-3.223-3.223-12.777 12.777-12.777-12.777-3.223 3.223 12.777 12.777-12.777 12.777 3.223 3.223 12.777-12.777 12.777 12.777 3.223-3.223-12.777-12.777 12.777-12.777z"></path>
</symbol>
<symbol id="icon-instagram1" viewBox="0 0 32 32">
<path d="M31.968 9.408c-0.074-1.701-0.349-2.869-0.742-3.882-0.424-1.111-1.054-2.059-1.85-2.837l-0.001-0.001c-0.78-0.792-1.724-1.419-2.778-1.827l-0.054-0.018c-1.019-0.394-2.181-0.667-3.882-0.742-1.712-0.082-2.256-0.101-6.602-0.101-4.344 0-4.888 0.019-6.595 0.094-1.699 0.074-2.869 0.349-3.88 0.742-1.112 0.424-2.060 1.054-2.839 1.85l-0.001 0.001c-0.791 0.78-1.418 1.724-1.825 2.778l-0.018 0.054c-0.395 1.019-0.669 2.181-0.744 3.882-0.082 1.712-0.101 2.256-0.101 6.602 0 4.344 0.019 4.888 0.094 6.595 0.075 1.701 0.35 2.869 0.744 3.882 0.426 1.11 1.055 2.057 1.849 2.837l0.001 0.001c0.8 0.813 1.77 1.443 2.832 1.843 1.019 0.395 2.182 0.67 3.882 0.744 1.707 0.075 2.251 0.094 6.595 0.094 4.346 0 4.89-0.019 6.595-0.094 1.701-0.074 2.869-0.349 3.882-0.742 2.157-0.85 3.833-2.526 4.664-4.628l0.019-0.055c0.394-1.019 0.669-2.182 0.744-3.882 0.075-1.707 0.093-2.251 0.093-6.595s-0.006-4.888-0.080-6.595zM29.088 22.474c-0.070 1.563-0.333 2.406-0.55 2.97-0.552 1.399-1.64 2.486-3.004 3.024l-0.036 0.012c-0.56 0.219-1.411 0.482-2.968 0.55-1.688 0.075-2.194 0.094-6.464 0.094-4.269 0-4.782-0.019-6.464-0.094-1.563-0.069-2.406-0.331-2.97-0.55-0.721-0.269-1.334-0.676-1.836-1.192l-0.001-0.001c-0.517-0.503-0.924-1.117-1.184-1.803l-0.011-0.034c-0.218-0.563-0.48-1.413-0.549-2.97-0.075-1.688-0.094-2.195-0.094-6.464 0-4.27 0.019-4.784 0.094-6.464 0.069-1.563 0.331-2.406 0.549-2.97 0.269-0.722 0.678-1.337 1.198-1.837l0.002-0.002c0.504-0.517 1.119-0.923 1.806-1.182l0.034-0.011c0.56-0.219 1.411-0.48 2.968-0.55 1.688-0.074 2.195-0.093 6.464-0.093 4.275 0 4.782 0.019 6.464 0.093 1.563 0.069 2.406 0.331 2.97 0.55 0.693 0.256 1.325 0.662 1.837 1.194 0.531 0.52 0.938 1.144 1.195 1.84 0.218 0.56 0.48 1.411 0.549 2.968 0.075 1.688 0.094 2.194 0.094 6.464 0 4.269-0.019 4.768-0.094 6.458z"></path>
<path d="M16.059 7.782c-4.539 0.002-8.218 3.682-8.219 8.221v0c0.091 4.471 3.737 8.060 8.221 8.060s8.13-3.589 8.221-8.052l0-0.009c-0.001-4.54-3.681-8.22-8.221-8.221h-0zM16.059 21.334c-2.945-0-5.332-2.388-5.332-5.333s2.388-5.333 5.333-5.333c0 0 0.001 0 0.001 0h-0c2.946 0 5.334 2.388 5.334 5.334s-2.388 5.334-5.334 5.334v0zM26.525 7.458c0 1.060-0.86 1.92-1.92 1.92s-1.92-0.86-1.92-1.92v0c0-1.060 0.86-1.92 1.92-1.92s1.92 0.86 1.92 1.92v0z"></path>
</symbol>
<symbol id="icon-facebook" viewBox="0 0 32 32">
<path d="M21.328 5.312h2.923v-5.088c-1.232-0.143-2.66-0.224-4.107-0.224-0.052 0-0.104 0-0.157 0l0.008-0c-4.213 0-7.099 2.65-7.099 7.52v4.48h-4.646v5.688h4.646v14.312h5.699v-14.31h4.459l0.709-5.688h-5.17v-3.922c0-1.643 0.443-2.768 2.734-2.768z"></path>
</symbol>
<symbol id="icon-mail1" viewBox="0 0 43 32">
<path d="M38.667 0h-34.667c-2.206 0-4 1.794-4 4v24c0 2.206 1.794 4 4 4h34.667c2.206 0 4-1.794 4-4v-24c0-2.206-1.794-4-4-4zM38.667 2.667c0.181 0 0.353 0.038 0.511 0.103l-17.844 15.466-17.844-15.466c0.151-0.065 0.327-0.103 0.511-0.103h34.667zM38.667 29.333h-34.667c-0.736-0.001-1.332-0.597-1.333-1.333v-22.413l17.793 15.421c0.233 0.202 0.539 0.326 0.874 0.326s0.641-0.123 0.876-0.327l-0.002 0.001 17.793-15.421v22.413c0 0.736-0.598 1.333-1.333 1.333z"></path>
</symbol>
<symbol id="icon-pencil" viewBox="0 0 32 32">
<path d="M12 20l4-2 14-14-2-2-14 14-2 4zM9.041 27.097c-0.989-2.085-2.052-3.149-4.137-4.137l3.097-8.525 4-2.435 12-12h-6l-12 12-6 20 20-6 12-12v-6l-12 12-2.435 4z"></path>
</symbol>
<symbol id="icon-location2" viewBox="0 0 32 32">
<path d="M16 0c-5.523 0-10 4.477-10 10 0 10 10 22 10 22s10-12 10-22c0-5.523-4.477-10-10-10zM16 16c-3.314 0-6-2.686-6-6s2.686-6 6-6 6 2.686 6 6-2.686 6-6 6z"></path>
</symbol>
<symbol id="icon-rocket" viewBox="0 0 32 32">
<path d="M22 2l-10 10h-6l-6 8c0 0 6.357-1.77 10.065-0.94l-10.065 12.94 13.184-10.255c1.839 4.208-1.184 10.255-1.184 10.255l8-6v-6l10-10 2-10-10 2z"></path>
</symbol>
<symbol id="icon-cross1" viewBox="0 0 32 32">
<path d="M31.708 25.708c-0-0-0-0-0-0l-9.708-9.708 9.708-9.708c0-0 0-0 0-0 0.105-0.105 0.18-0.227 0.229-0.357 0.133-0.356 0.057-0.771-0.229-1.057l-4.586-4.586c-0.286-0.286-0.702-0.361-1.057-0.229-0.13 0.048-0.252 0.124-0.357 0.228 0 0-0 0-0 0l-9.708 9.708-9.708-9.708c-0-0-0-0-0-0-0.105-0.104-0.227-0.18-0.357-0.228-0.356-0.133-0.771-0.057-1.057 0.229l-4.586 4.586c-0.286 0.286-0.361 0.702-0.229 1.057 0.049 0.13 0.124 0.252 0.229 0.357 0 0 0 0 0 0l9.708 9.708-9.708 9.708c-0 0-0 0-0 0-0.104 0.105-0.18 0.227-0.229 0.357-0.133 0.355-0.057 0.771 0.229 1.057l4.586 4.586c0.286 0.286 0.702 0.361 1.057 0.229 0.13-0.049 0.252-0.124 0.357-0.229 0-0 0-0 0-0l9.708-9.708 9.708 9.708c0 0 0 0 0 0 0.105 0.105 0.227 0.18 0.357 0.229 0.356 0.133 0.771 0.057 1.057-0.229l4.586-4.586c0.286-0.286 0.362-0.702 0.229-1.057-0.049-0.13-0.124-0.252-0.229-0.357z"></path>
</symbol>
<symbol id="icon-telegram" viewBox="0 0 32 32">
<path d="M16 0c-8.838 0-16 7.162-16 16s7.162 16 16 16 16-7.163 16-16-7.163-16-16-16zM23.863 10.969l-2.625 12.369c-0.181 0.881-0.712 1.087-1.45 0.681l-4-2.956-1.919 1.869c-0.225 0.219-0.4 0.4-0.8 0.4-0.519 0-0.431-0.194-0.606-0.688l-1.363-4.475-3.956-1.231c-0.856-0.262-0.862-0.85 0.194-1.269l15.412-5.95c0.7-0.319 1.381 0.169 1.113 1.25z"></path>
</symbol>
<symbol id="icon-message" viewBox="0 0 32 32">
<path stroke-linejoin="miter" stroke-linecap="butt" stroke-miterlimit="4" stroke-width="2" d="M4 27.053v-20.386c0-1.473 1.194-2.667 2.667-2.667h18.667c1.473 0 2.667 1.194 2.667 2.667v13.333c0 1.473-1.194 2.667-2.667 2.667h-14.718c-0.81 0-1.576 0.368-2.082 1.001l-3.108 3.885c-0.472 0.591-1.425 0.257-1.425-0.5z"></path>
</symbol>
<symbol id="icon-tree" viewBox="0 0 32 32">
<path fill="#264970" style="fill: var(--color1, #264970)" d="M16.843 30.39v-2.779l6.94-3.515c0.162-0.083 0.271-0.249 0.271-0.441 0-0 0-0 0-0v0-1.591c0.648-0.224 1.082-0.871 1.009-1.582-0.086-0.83-0.828-1.434-1.659-1.349s-1.434 0.828-1.349 1.659c0.062 0.604 0.471 1.086 1.009 1.272v1.287l-6.221 3.151v-2.585l2.742-1.269c0.171-0.080 0.287-0.251 0.287-0.448v-0l0.005-4.306 5.075-2.851c0.152-0.086 0.253-0.247 0.253-0.431 0 0 0 0 0 0v0-1.201c0.648-0.224 1.082-0.87 1.009-1.582-0.086-0.831-0.828-1.435-1.659-1.348s-1.434 0.828-1.349 1.659c0.063 0.603 0.471 1.086 1.009 1.272v0.912l-5.075 2.851c-0.152 0.086-0.253 0.247-0.253 0.431v0l-0.005 4.279-2.040 0.943v-9.304l4.27-2.088c0.166-0.082 0.277-0.25 0.277-0.443 0-0 0-0 0-0v0-1.591c0.648-0.224 1.082-0.87 1.009-1.583-0.086-0.83-0.828-1.434-1.659-1.348s-1.435 0.828-1.349 1.659c0.062 0.603 0.471 1.085 1.009 1.271v1.282l-3.558 1.739v-5.372c0.648-0.224 1.083-0.871 1.009-1.583-0.085-0.83-0.828-1.434-1.659-1.349s-1.434 0.828-1.348 1.659c0.062 0.603 0.471 1.085 1.008 1.272v8.761l-2.515-1.321v-3.98c0 0 0-0 0-0 0-0.159-0.075-0.301-0.193-0.391l-0.001-0.001-1.72-1.317c0.094-0.225 0.134-0.476 0.107-0.735-0.085-0.83-0.828-1.434-1.659-1.348s-1.434 0.828-1.349 1.659c0.086 0.831 0.828 1.434 1.659 1.349 0.217-0.023 0.414-0.089 0.589-0.188l-0.008 0.004 1.585 1.214v4.034c0 0.184 0.102 0.353 0.265 0.438l3.239 1.702v3.218l-5.405-2.5 0.074-1.958c0-0.006 0-0.012 0-0.019 0-0.191-0.108-0.356-0.266-0.439l-0.003-0.001-2.477-1.271c0.026-0.104 0.041-0.224 0.041-0.347 0-0.053-0.003-0.106-0.008-0.158l0.001 0.007c-0.086-0.83-0.828-1.434-1.659-1.348s-1.434 0.828-1.349 1.659c0.086 0.83 0.828 1.434 1.659 1.348 0.3-0.031 0.569-0.147 0.787-0.323l-0.003 0.002 2.277 1.168-0.075 1.973c-0 0.006-0 0.012-0 0.019 0 0.198 0.116 0.369 0.284 0.448l0.003 0.001 6.119 2.83v2.297c-0.003 0.020-0.004 0.042-0.004 0.065s0.002 0.046 0.005 0.068l-0-0.003v6.75c-0.55-0.006-1.085-0.042-1.611-0.105l0.070 0.007v-5.802c0-0.193-0.113-0.369-0.288-0.449l-3.839-1.767c0.010-0.099 0.010-0.2-0.001-0.302-0.086-0.83-0.828-1.434-1.659-1.348s-1.434 0.828-1.349 1.659c0.086 0.83 0.828 1.434 1.659 1.349 0.37-0.039 0.695-0.207 0.934-0.457l0.001-0.001 3.553 1.635v5.334c-6.674-1.259-11.739-7.129-11.739-14.163 0-7.949 6.467-14.416 14.416-14.416s14.416 6.468 14.416 14.416c0 7.666-6.015 13.951-13.573 14.389zM16 0c-8.823 0-16 7.178-16 16s7.178 16 16 16c8.823 0 16-7.178 16-16s-7.177-16-16-16z"></path>
</symbol>
</defs>

</svg>
